<svg id="visual" viewBox="0 0 960 200" width="960" height="200" xmlns="http://www.w3.org/2000/svg" xmlns:xlink="http://www.w3.org/1999/xlink" version="1.1"><rect x="0" y="0" width="960" height="200" fill="#F5F5F5"></rect><path d="M0 113L22.8 120C45.7 127 91.3 141 137 139.8C182.7 138.7 228.3 122.3 274 122.3C319.7 122.3 365.3 138.7 411.2 142.7C457 146.7 503 138.3 548.8 139.7C594.7 141 640.3 152 686 153.5C731.7 155 777.3 147 823 138.8C868.7 130.7 914.3 122.3 937.2 118.2L960 114L960 0L937.2 0C914.3 0 868.7 0 823 0C777.3 0 731.7 0 686 0C640.3 0 594.7 0 548.8 0C503 0 457 0 411.2 0C365.3 0 319.7 0 274 0C228.3 0 182.7 0 137 0C91.3 0 45.7 0 22.8 0L0 0Z" fill="#85afff"></path><path d="M0 106L22.8 103C45.7 100 91.3 94 137 97.5C182.7 101 228.3 114 274 114.8C319.7 115.7 365.3 104.3 411.2 99.7C457 95 503 97 548.8 98.3C594.7 99.7 640.3 100.3 686 97.2C731.7 94 777.3 87 823 92.7C868.7 98.3 914.3 116.7 937.2 125.8L960 135L960 0L937.2 0C914.3 0 868.7 0 823 0C777.3 0 731.7 0 686 0C640.3 0 594.7 0 548.8 0C503 0 457 0 411.2 0C365.3 0 319.7 0 274 0C228.3 0 182.7 0 137 0C91.3 0 45.7 0 22.8 0L0 0Z" fill="#5a92c8"></path><path d="M0 74L22.8 78.3C45.7 82.7 91.3 91.3 137 90.2C182.7 89 228.3 78 274 79C319.7 80 365.3 93 411.2 92.5C457 92 503 78 548.8 71.2C594.7 64.3 640.3 64.7 686 70.2C731.7 75.7 777.3 86.3 823 92C868.7 97.7 914.3 98.3 937.2 98.7L960 99L960 0L937.2 0C914.3 0 868.7 0 823 0C777.3 0 731.7 0 686 0C640.3 0 594.7 0 548.8 0C503 0 457 0 411.2 0C365.3 0 319.7 0 274 0C228.3 0 182.7 0 137 0C91.3 0 45.7 0 22.8 0L0 0Z" fill="#437392"></path><path d="M0 52L22.8 50.7C45.7 49.3 91.3 46.7 137 49.8C182.7 53 228.3 62 274 64.8C319.7 67.7 365.3 64.3 411.2 63.7C457 63 503 65 548.8 62.8C594.7 60.7 640.3 54.3 686 55.7C731.7 57 777.3 66 823 68.3C868.7 70.7 914.3 66.3 937.2 64.2L960 62L960 0L937.2 0C914.3 0 868.7 0 823 0C777.3 0 731.7 0 686 0C640.3 0 594.7 0 548.8 0C503 0 457 0 411.2 0C365.3 0 319.7 0 274 0C228.3 0 182.7 0 137 0C91.3 0 45.7 0 22.8 0L0 0Z" fill="#395360"></path><path d="M0 18L22.8 20.8C45.7 23.7 91.3 29.3 137 34.3C182.7 39.3 228.3 43.7 274 44.7C319.7 45.7 365.3 43.3 411.2 41.8C457 40.3 503 39.7 548.8 39C594.7 38.3 640.3 37.7 686 35.8C731.7 34 777.3 31 823 28C868.7 25 914.3 22 937.2 20.5L960 19L960 0L937.2 0C914.3 0 868.7 0 823 0C777.3 0 731.7 0 686 0C640.3 0 594.7 0 548.8 0C503 0 457 0 411.2 0C365.3 0 319.7 0 274 0C228.3 0 182.7 0 137 0C91.3 0 45.7 0 22.8 0L0 0Z" fill="#313435"></path></svg>